<?xml version="1.0" encoding="UTF-8" standalone="no"?>
<svg
   aria-hidden="true"
   role="img"
   className="iconify iconify--logos"
   width="31.88"
   height="32"
   preserveAspectRatio="xMidYMid meet"
   viewBox="0 0 256 257"
   version="1.1"
   id="svg12019"
   sodipodi:docname="vite.svg"
   inkscape:version="1.2.2 (b0a8486541, 2022-12-01)"
   xmlns:inkscape="http://www.inkscape.org/namespaces/inkscape"
   xmlns:sodipodi="http://sodipodi.sourceforge.net/DTD/sodipodi-0.dtd"
   xmlns="http://www.w3.org/2000/svg"
   xmlns:svg="http://www.w3.org/2000/svg">
  <sodipodi:namedview
     id="namedview12021"
     pagecolor="#ffffff"
     bordercolor="#000000"
     borderopacity="0.25"
     inkscape:showpageshadow="2"
     inkscape:pageopacity="0.0"
     inkscape:pagecheckerboard="0"
     inkscape:deskcolor="#d1d1d1"
     showgrid="false"
     inkscape:zoom="16.453125"
     inkscape:cx="3.677113"
     inkscape:cy="30.784425"
     inkscape:window-width="3774"
     inkscape:window-height="2091"
     inkscape:window-x="0"
     inkscape:window-y="0"
     inkscape:window-maximized="1"
     inkscape:current-layer="svg12019" />
  <defs
     id="defs12013">
    <linearGradient
       id="IconifyId1813088fe1fbc01fb466"
       x1="-.828%"
       x2="57.636%"
       y1="7.652%"
       y2="78.411%">
      <stop
         offset="0%"
         stop-color="#41D1FF"
         id="stop12001" />
      <stop
         offset="100%"
         stop-color="#BD34FE"
         id="stop12003" />
    </linearGradient>
    <linearGradient
       id="IconifyId1813088fe1fbc01fb467"
       x1="43.376%"
       x2="50.316%"
       y1="2.242%"
       y2="89.03%">
      <stop
         offset="0%"
         stop-color="#FFEA83"
         id="stop12006" />
      <stop
         offset="8.333%"
         stop-color="#FFDD35"
         id="stop12008" />
      <stop
         offset="100%"
         stop-color="#FFA800"
         id="stop12010" />
    </linearGradient>
  </defs>
  <g
     id="g13703"
     transform="matrix(0.57241633,0,0,0.57241633,92.105797,65.771778)">
    <path
       style="display:inline;fill:#ffffff;fill-opacity:0.997607;stroke:#000000;stroke-width:0.11156;stroke-linecap:square;stroke-linejoin:round;stroke-dasharray:none;stroke-opacity:1"
       id="path21549-5"
       sodipodi:type="arc"
       sodipodi:cx="11.35285"
       sodipodi:cy="242.04666"
       sodipodi:rx="14.121861"
       sodipodi:ry="14.008489"
       sodipodi:start="0"
       sodipodi:end="6.2748848"
       sodipodi:open="true"
       sodipodi:arc-type="arc"
       d="M 25.474711,242.04666 A 14.121861,14.008489 0 0 1 11.382155,256.05512 14.121861,14.008489 0 0 1 -2.7688899,242.1048 14.121861,14.008489 0 0 1 11.264937,228.03844 14.121861,14.008489 0 0 1 25.474225,241.93039" />
    <path
       style="display:inline;fill:#ffffff;fill-opacity:0.997607;stroke:#000000;stroke-width:0.113739;stroke-linecap:square;stroke-linejoin:round;stroke-dasharray:none;stroke-opacity:1"
       id="path21549-5-3-5"
       sodipodi:type="arc"
       sodipodi:cx="57.662357"
       sodipodi:cy="219.39717"
       sodipodi:rx="14.397749"
       sodipodi:ry="14.282163"
       sodipodi:start="0"
       sodipodi:end="6.2748848"
       sodipodi:open="true"
       sodipodi:arc-type="arc"
       d="M 72.060106,219.39717 A 14.397749,14.282163 0 0 1 57.692234,233.6793 14.397749,14.282163 0 0 1 43.264732,219.45645 14.397749,14.282163 0 0 1 57.572726,205.11529 14.397749,14.282163 0 0 1 72.05961,219.27862" />
    <path
       style="display:inline;fill:#ffffff;fill-opacity:0.997607;stroke:#000000;stroke-width:0.113739;stroke-linecap:square;stroke-linejoin:round;stroke-dasharray:none;stroke-opacity:1"
       id="path21549-5-3-5-20"
       sodipodi:type="arc"
       sodipodi:cx="-5.8672438"
       sodipodi:cy="193.19145"
       sodipodi:rx="14.397749"
       sodipodi:ry="14.282163"
       sodipodi:start="0"
       sodipodi:end="6.2748848"
       sodipodi:open="true"
       sodipodi:arc-type="arc"
       d="M 8.5305052,193.19145 A 14.397749,14.282163 0 0 1 -5.8373666,207.47358 14.397749,14.282163 0 0 1 -20.264869,193.25073 14.397749,14.282163 0 0 1 -5.9568747,178.90957 14.397749,14.282163 0 0 1 8.5300092,193.0729" />
    <path
       style="display:inline;fill:#ffffff;fill-opacity:0.997607;stroke:#000000;stroke-width:0.113739;stroke-linecap:square;stroke-linejoin:round;stroke-dasharray:none;stroke-opacity:1"
       id="path21549-5-3-5-20-3"
       sodipodi:type="arc"
       sodipodi:cx="-32.974056"
       sodipodi:cy="129.85893"
       sodipodi:rx="14.397749"
       sodipodi:ry="14.282163"
       sodipodi:start="0"
       sodipodi:end="6.2748848"
       sodipodi:open="true"
       sodipodi:arc-type="arc"
       d="m -18.576307,129.85893 a 14.397749,14.282163 0 0 1 -14.367872,14.28213 14.397749,14.282163 0 0 1 -14.427502,-14.22285 14.397749,14.282163 0 0 1 14.307994,-14.34116 14.397749,14.282163 0 0 1 14.486884,14.16333" />
    <path
       style="display:inline;fill:#ffffff;fill-opacity:0.997607;stroke:#000000;stroke-width:0.113739;stroke-linecap:square;stroke-linejoin:round;stroke-dasharray:none;stroke-opacity:1"
       id="path21549-5-3-5-20-7"
       sodipodi:type="arc"
       sodipodi:cx="-7.0618758"
       sodipodi:cy="66.224419"
       sodipodi:rx="14.397749"
       sodipodi:ry="14.282163"
       sodipodi:start="0"
       sodipodi:end="6.2748848"
       sodipodi:open="true"
       sodipodi:arc-type="arc"
       d="M 7.3358731,66.224419 A 14.397749,14.282163 0 0 1 -7.0319987,80.506551 14.397749,14.282163 0 0 1 -21.459501,66.283693 14.397749,14.282163 0 0 1 -7.1515067,51.942533 14.397749,14.282163 0 0 1 7.3353771,66.105871" />
    <path
       style="display:inline;fill:#ffffff;fill-opacity:0.997607;stroke:#000000;stroke-width:0.113739;stroke-linecap:square;stroke-linejoin:round;stroke-dasharray:none;stroke-opacity:1"
       id="path21549-5-3-5-20-7-2"
       sodipodi:type="arc"
       sodipodi:cx="55.824265"
       sodipodi:cy="39.360775"
       sodipodi:rx="14.397749"
       sodipodi:ry="14.282163"
       sodipodi:start="0"
       sodipodi:end="6.2748848"
       sodipodi:open="true"
       sodipodi:arc-type="arc"
       d="M 70.222013,39.360775 A 14.397749,14.282163 0 0 1 55.854142,53.642907 14.397749,14.282163 0 0 1 41.42664,39.420049 14.397749,14.282163 0 0 1 55.734634,25.078889 14.397749,14.282163 0 0 1 70.221517,39.242227" />
    <path
       style="display:inline;fill:#ffffff;fill-opacity:0.997607;stroke:#000000;stroke-width:0.113739;stroke-linecap:square;stroke-linejoin:round;stroke-dasharray:none;stroke-opacity:1"
       id="path21549-5-3-5-2-1"
       sodipodi:type="arc"
       sodipodi:cx="147.20221"
       sodipodi:cy="128.15909"
       sodipodi:rx="14.397749"
       sodipodi:ry="14.282163"
       sodipodi:start="0"
       sodipodi:end="6.2748848"
       sodipodi:open="true"
       sodipodi:arc-type="arc"
       d="m 161.59996,128.15909 a 14.397749,14.282163 0 0 1 -14.36787,14.28213 14.397749,14.282163 0 0 1 -14.42751,-14.22286 14.397749,14.282163 0 0 1 14.308,-14.34116 14.397749,14.282163 0 0 1 14.48688,14.16334" />
    <path
       style="display:inline;fill:#ffffff;fill-opacity:0.997607;stroke:#000000;stroke-width:0.0836383;stroke-linecap:square;stroke-linejoin:round;stroke-dasharray:none;stroke-opacity:1"
       id="path21549-5-3-5-2-9"
       sodipodi:type="arc"
       sodipodi:cx="86.065933"
       sodipodi:cy="197.91463"
       sodipodi:rx="10.587382"
       sodipodi:ry="10.502386"
       sodipodi:start="0"
       sodipodi:end="6.2748848"
       sodipodi:open="true"
       sodipodi:arc-type="arc"
       d="M 96.653316,197.91463 A 10.587382,10.502386 0 0 1 86.087903,208.41699 10.587382,10.502386 0 0 1 75.478642,197.95821 10.587382,10.502386 0 0 1 86.000023,187.41244 10.587382,10.502386 0 0 1 96.652951,197.82745" />
    <path
       style="display:inline;fill:#ffffff;fill-opacity:0.997607;stroke:#000000;stroke-width:0.0836383;stroke-linecap:square;stroke-linejoin:round;stroke-dasharray:none;stroke-opacity:1"
       id="path21549-5-3-5-2-9-8"
       sodipodi:type="arc"
       sodipodi:cx="29.258783"
       sodipodi:cy="198.41301"
       sodipodi:rx="10.587382"
       sodipodi:ry="10.502386"
       sodipodi:start="0"
       sodipodi:end="6.2748848"
       sodipodi:open="true"
       sodipodi:arc-type="arc"
       d="M 39.846166,198.41301 A 10.587382,10.502386 0 0 1 29.280753,208.91537 10.587382,10.502386 0 0 1 18.671492,198.4566 10.587382,10.502386 0 0 1 29.192873,187.91083 10.587382,10.502386 0 0 1 39.845801,198.32584" />
    <path
       style="display:inline;fill:#ffffff;fill-opacity:0.997607;stroke:#000000;stroke-width:0.0836383;stroke-linecap:square;stroke-linejoin:round;stroke-dasharray:none;stroke-opacity:1"
       id="path21549-5-3-5-2-9-7"
       sodipodi:type="arc"
       sodipodi:cx="-11.73457"
       sodipodi:cy="158.40065"
       sodipodi:rx="10.587382"
       sodipodi:ry="10.502386"
       sodipodi:start="0"
       sodipodi:end="6.2748848"
       sodipodi:open="true"
       sodipodi:arc-type="arc"
       d="m -1.1471872,158.40065 a 10.587382,10.502386 0 0 1 -10.5654118,10.50236 10.587382,10.502386 0 0 1 -10.609262,-10.45877 10.587382,10.502386 0 0 1 10.521381,-10.54577 10.587382,10.502386 0 0 1 10.652928,10.41501" />
    <path
       style="display:inline;fill:#ffffff;fill-opacity:0.997607;stroke:#000000;stroke-width:0.0836383;stroke-linecap:square;stroke-linejoin:round;stroke-dasharray:none;stroke-opacity:1"
       id="path21549-5-3-5-2-9-9"
       sodipodi:type="arc"
       sodipodi:cx="-12.23271"
       sodipodi:cy="101.31699"
       sodipodi:rx="10.587382"
       sodipodi:ry="10.502386"
       sodipodi:start="0"
       sodipodi:end="6.2748848"
       sodipodi:open="true"
       sodipodi:arc-type="arc"
       d="M -1.6453276,101.31699 A 10.587382,10.502386 0 0 1 -12.21074,111.81936 10.587382,10.502386 0 0 1 -22.820001,101.36058 10.587382,10.502386 0 0 1 -12.29862,90.814811 10.587382,10.502386 0 0 1 -1.6456923,101.22982" />
    <path
       style="display:inline;fill:#ffffff;fill-opacity:0.997607;stroke:#000000;stroke-width:0.0836383;stroke-linecap:square;stroke-linejoin:round;stroke-dasharray:none;stroke-opacity:1"
       id="path21549-5-3-5-2-9-9-2"
       sodipodi:type="arc"
       sodipodi:cx="27.779417"
       sodipodi:cy="60.600143"
       sodipodi:rx="10.587382"
       sodipodi:ry="10.502386"
       sodipodi:start="0"
       sodipodi:end="6.2748848"
       sodipodi:open="true"
       sodipodi:arc-type="arc"
       d="M 38.366799,60.600143 A 10.587382,10.502386 0 0 1 27.801387,71.102507 10.587382,10.502386 0 0 1 17.192126,60.643731 10.587382,10.502386 0 0 1 27.713507,50.097961 10.587382,10.502386 0 0 1 38.366435,60.512969" />
    <path
       style="display:inline;fill:#ffffff;fill-opacity:0.997607;stroke:#000000;stroke-width:0.0836383;stroke-linecap:square;stroke-linejoin:round;stroke-dasharray:none;stroke-opacity:1"
       id="path21549-5-3-5-2-9-9-8"
       sodipodi:type="arc"
       sodipodi:cx="104.40099"
       sodipodi:cy="55.065723"
       sodipodi:rx="10.587382"
       sodipodi:ry="10.502386"
       sodipodi:start="0"
       sodipodi:end="6.2748848"
       sodipodi:open="true"
       sodipodi:arc-type="arc"
       d="M 114.98838,55.065723 A 10.587382,10.502386 0 0 1 104.42296,65.568087 10.587382,10.502386 0 0 1 93.813702,55.109311 10.587382,10.502386 0 0 1 104.33508,44.563541 10.587382,10.502386 0 0 1 114.98801,54.978549" />
    <path
       style="display:inline;fill:#ffffff;fill-opacity:0.997607;stroke:#000000;stroke-width:0.0836383;stroke-linecap:square;stroke-linejoin:round;stroke-dasharray:none;stroke-opacity:1"
       id="path21549-5-3-5-2-9-9-8-8"
       sodipodi:type="arc"
       sodipodi:cx="147.20221"
       sodipodi:cy="77.693214"
       sodipodi:rx="10.587382"
       sodipodi:ry="10.502386"
       sodipodi:start="0"
       sodipodi:end="6.2748848"
       sodipodi:open="true"
       sodipodi:arc-type="arc"
       d="M 157.78959,77.693214 A 10.587382,10.502386 0 0 1 147.22418,88.195578 10.587382,10.502386 0 0 1 136.61492,77.736802 10.587382,10.502386 0 0 1 147.1363,67.191032 10.587382,10.502386 0 0 1 157.78923,77.60604" />
    <path
       style="display:inline;fill:#ffffff;fill-opacity:0.997607;stroke:#000000;stroke-width:0.142842;stroke-linecap:square;stroke-linejoin:round;stroke-dasharray:none;stroke-opacity:1"
       id="path21549-9"
       sodipodi:type="arc"
       sodipodi:cx="-106.1383"
       sodipodi:cy="198.47275"
       sodipodi:rx="18.311415"
       sodipodi:ry="17.711597"
       sodipodi:start="0"
       sodipodi:end="6.2748848"
       sodipodi:open="true"
       sodipodi:arc-type="arc"
       d="m -87.826883,198.47275 a 18.311415,17.711597 0 0 1 -18.273417,17.71156 18.311415,17.711597 0 0 1 -18.34926,-17.63805 18.311415,17.711597 0 0 1 18.19727,-17.78477 18.311415,17.711597 0 0 1 18.424776,17.56424" />
    <path
       style="display:inline;fill:#ffffff;fill-opacity:0.997607;stroke:#000000;stroke-width:0.142842;stroke-linecap:square;stroke-linejoin:round;stroke-dasharray:none;stroke-opacity:1"
       id="path21549-9-6"
       sodipodi:type="arc"
       sodipodi:cx="-107.32146"
       sodipodi:cy="62.898628"
       sodipodi:rx="18.311415"
       sodipodi:ry="17.711597"
       sodipodi:start="0"
       sodipodi:end="6.2748848"
       sodipodi:open="true"
       sodipodi:arc-type="arc"
       d="m -89.010042,62.898628 a 18.311415,17.711597 0 0 1 -18.273418,17.71156 18.311415,17.711597 0 0 1 -18.34925,-17.638052 18.311415,17.711597 0 0 1 18.19726,-17.784762 18.311415,17.711597 0 0 1 18.424777,17.564241" />
    <path
       style="display:inline;fill:#ffffff;fill-opacity:0.997607;stroke:#000000;stroke-width:0.140001;stroke-linecap:square;stroke-linejoin:round;stroke-dasharray:none;stroke-opacity:1"
       id="path21549-5-3-0"
       sodipodi:type="arc"
       sodipodi:cx="-47.189217"
       sodipodi:cy="27.863497"
       sodipodi:rx="17.722124"
       sodipodi:ry="17.579849"
       sodipodi:start="0"
       sodipodi:end="6.2748848"
       sodipodi:open="true"
       sodipodi:arc-type="arc"
       d="m -29.467093,27.863497 a 17.722124,17.579849 0 0 1 -17.685348,17.579811 17.722124,17.579849 0 0 1 -17.758747,-17.506851 17.722124,17.579849 0 0 1 17.611645,-17.652469 17.722124,17.579849 0 0 1 17.83184,17.433589" />
    <path
       style="display:inline;fill:#ffffff;fill-opacity:0.997607;stroke:#000000;stroke-width:0.142842;stroke-linecap:square;stroke-linejoin:round;stroke-dasharray:none;stroke-opacity:1"
       id="path21549-9-1"
       sodipodi:type="arc"
       sodipodi:cx="-11.640315"
       sodipodi:cy="-33.803467"
       sodipodi:rx="18.311415"
       sodipodi:ry="17.711597"
       sodipodi:start="0"
       sodipodi:end="6.2748848"
       sodipodi:open="true"
       sodipodi:arc-type="arc"
       d="M 6.6710997,-33.803467 A 18.311415,17.711597 0 0 1 -11.602317,-16.091907 18.311415,17.711597 0 0 1 -29.951572,-33.729959 18.311415,17.711597 0 0 1 -11.75431,-51.514721 18.311415,17.711597 0 0 1 6.6704689,-33.95048" />
    <path
       style="display:inline;fill:#ffffff;fill-opacity:0.997607;stroke:#000000;stroke-width:0.140001;stroke-linecap:square;stroke-linejoin:round;stroke-dasharray:none;stroke-opacity:1"
       id="path21549-5-3-62"
       sodipodi:type="arc"
       sodipodi:cx="55.148964"
       sodipodi:cy="-15.908879"
       sodipodi:rx="17.722124"
       sodipodi:ry="17.579849"
       sodipodi:start="0"
       sodipodi:end="6.2748848"
       sodipodi:open="true"
       sodipodi:arc-type="arc"
       d="M 72.871088,-15.908879 A 17.722124,17.579849 0 0 1 55.18574,1.6709321 17.722124,17.579849 0 0 1 37.426992,-15.835919 a 17.722124,17.579849 0 0 1 17.611646,-17.652469 17.722124,17.579849 0 0 1 17.83184,17.433589" />
    <path
       style="display:inline;fill:#ffffff;fill-opacity:0.997607;stroke:#000000;stroke-width:0.142842;stroke-linecap:square;stroke-linejoin:round;stroke-dasharray:none;stroke-opacity:1"
       id="path21549"
       sodipodi:type="arc"
       sodipodi:cx="-9.4363184"
       sodipodi:cy="293.50165"
       sodipodi:rx="18.311415"
       sodipodi:ry="17.711597"
       sodipodi:start="0"
       sodipodi:end="6.2748848"
       sodipodi:open="true"
       sodipodi:arc-type="arc"
       d="M 8.8750963,293.50165 A 18.311415,17.711597 0 0 1 -9.3983199,311.21321 18.311415,17.711597 0 0 1 -27.747575,293.57516 18.311415,17.711597 0 0 1 -9.5503132,275.79039 18.311415,17.711597 0 0 1 8.8744655,293.35463" />
    <path
       style="display:inline;fill:#ffffff;fill-opacity:0.997607;stroke:#000000;stroke-width:0.11156;stroke-linecap:square;stroke-linejoin:round;stroke-dasharray:none;stroke-opacity:1"
       id="path21549-5-2"
       sodipodi:type="arc"
       sodipodi:cx="-55.059639"
       sodipodi:cy="176.78874"
       sodipodi:rx="14.121861"
       sodipodi:ry="14.008489"
       sodipodi:start="0"
       sodipodi:end="6.2748848"
       sodipodi:open="true"
       sodipodi:arc-type="arc"
       d="m -40.937778,176.78874 a 14.121861,14.008489 0 0 1 -14.092556,14.00846 14.121861,14.008489 0 0 1 -14.151045,-13.95032 14.121861,14.008489 0 0 1 14.033827,-14.06636 14.121861,14.008489 0 0 1 14.209288,13.89195" />
    <path
       style="display:inline;fill:#ffffff;fill-opacity:0.997607;stroke:#000000;stroke-width:0.11156;stroke-linecap:square;stroke-linejoin:round;stroke-dasharray:none;stroke-opacity:1"
       id="path21549-5-2-5"
       sodipodi:type="arc"
       sodipodi:cx="-55.878178"
       sodipodi:cy="83.473808"
       sodipodi:rx="14.121861"
       sodipodi:ry="14.008489"
       sodipodi:start="0"
       sodipodi:end="6.2748848"
       sodipodi:open="true"
       sodipodi:arc-type="arc"
       d="m -41.756316,83.473808 a 14.121861,14.008489 0 0 1 -14.092557,14.008459 14.121861,14.008489 0 0 1 -14.151044,-13.95032 14.121861,14.008489 0 0 1 14.033826,-14.066356 14.121861,14.008489 0 0 1 14.209288,13.891941" />
    <path
       style="display:inline;fill:#ffffff;fill-opacity:0.997607;stroke:#000000;stroke-width:0.11156;stroke-linecap:square;stroke-linejoin:round;stroke-dasharray:none;stroke-opacity:1"
       id="path21549-5-2-9"
       sodipodi:type="arc"
       sodipodi:cx="9.391324"
       sodipodi:cy="17.280748"
       sodipodi:rx="14.121861"
       sodipodi:ry="14.008489"
       sodipodi:start="0"
       sodipodi:end="6.2748848"
       sodipodi:open="true"
       sodipodi:arc-type="arc"
       d="M 23.513186,17.280748 A 14.121861,14.008489 0 0 1 9.4206287,31.289207 14.121861,14.008489 0 0 1 -4.7304158,17.338887 14.121861,14.008489 0 0 1 9.3034107,3.2725312 14.121861,14.008489 0 0 1 23.512699,17.164472" />
    <path
       style="display:inline;fill:#ffffff;fill-opacity:0.997607;stroke:#000000;stroke-width:0.140001;stroke-linecap:square;stroke-linejoin:round;stroke-dasharray:none;stroke-opacity:1"
       id="path21549-5-3"
       sodipodi:type="arc"
       sodipodi:cx="58.69627"
       sodipodi:cy="274.42389"
       sodipodi:rx="17.722124"
       sodipodi:ry="17.579849"
       sodipodi:start="0"
       sodipodi:end="6.2748848"
       sodipodi:open="true"
       sodipodi:arc-type="arc"
       d="M 76.418394,274.42389 A 17.722124,17.579849 0 0 1 58.733046,292.0037 17.722124,17.579849 0 0 1 40.974299,274.49685 17.722124,17.579849 0 0 1 58.585944,256.84438 17.722124,17.579849 0 0 1 76.417784,274.27797" />
    <path
       style="display:inline;fill:#ffffff;fill-opacity:0.997607;stroke:#000000;stroke-width:0.140001;stroke-linecap:square;stroke-linejoin:round;stroke-dasharray:none;stroke-opacity:1"
       id="path21549-5-3-3"
       sodipodi:type="arc"
       sodipodi:cx="-44.471451"
       sodipodi:cy="233.15981"
       sodipodi:rx="17.722124"
       sodipodi:ry="17.579849"
       sodipodi:start="0"
       sodipodi:end="6.2748848"
       sodipodi:open="true"
       sodipodi:arc-type="arc"
       d="m -26.749327,233.15981 a 17.722124,17.579849 0 0 1 -17.685348,17.57981 17.722124,17.579849 0 0 1 -17.758747,-17.50685 17.722124,17.579849 0 0 1 17.611645,-17.65247 17.722124,17.579849 0 0 1 17.83184,17.43359" />
    <path
       style="display:inline;fill:#ffffff;fill-opacity:0.997607;stroke:#000000;stroke-width:0.140001;stroke-linecap:square;stroke-linejoin:round;stroke-dasharray:none;stroke-opacity:1"
       id="path21549-5-3-6"
       sodipodi:type="arc"
       sodipodi:cx="-88.243828"
       sodipodi:cy="131.03122"
       sodipodi:rx="17.722124"
       sodipodi:ry="17.579849"
       sodipodi:start="0"
       sodipodi:end="6.2748848"
       sodipodi:open="true"
       sodipodi:arc-type="arc"
       d="m -70.521704,131.03122 a 17.722124,17.579849 0 0 1 -17.685348,17.57981 17.722124,17.579849 0 0 1 -17.758748,-17.50685 17.722124,17.579849 0 0 1 17.611646,-17.65247 17.722124,17.579849 0 0 1 17.83184,17.43359" />
    <path
       style="display:inline;fill:#ffffff;fill-opacity:0.997607;stroke:#000000;stroke-width:0.113739;stroke-linecap:square;stroke-linejoin:round;stroke-dasharray:none;stroke-opacity:1"
       id="path21549-5-3-5-2"
       sodipodi:type="arc"
       sodipodi:cx="121.44971"
       sodipodi:cy="192.04742"
       sodipodi:rx="14.397749"
       sodipodi:ry="14.282163"
       sodipodi:start="0"
       sodipodi:end="6.2748848"
       sodipodi:open="true"
       sodipodi:arc-type="arc"
       d="m 135.84746,192.04742 a 14.397749,14.282163 0 0 1 -14.36788,14.28214 14.397749,14.282163 0 0 1 -14.4275,-14.22286 14.397749,14.282163 0 0 1 14.308,-14.34116 14.397749,14.282163 0 0 1 14.48688,14.16334" />
    <path
       style="display:inline;fill:#ffffff;fill-opacity:0.997607;stroke:#000000;stroke-width:0.0836383;stroke-linecap:square;stroke-linejoin:round;stroke-dasharray:none;stroke-opacity:1"
       id="path21549-5-3-5-2-9-9-9"
       sodipodi:type="arc"
       sodipodi:cx="126.07806"
       sodipodi:cy="157.19803"
       sodipodi:rx="10.587382"
       sodipodi:ry="10.502386"
       sodipodi:start="0"
       sodipodi:end="6.2748848"
       sodipodi:open="true"
       sodipodi:arc-type="arc"
       d="m 136.66544,157.19803 a 10.587382,10.502386 0 0 1 -10.56541,10.50236 10.587382,10.502386 0 0 1 -10.60926,-10.45877 10.587382,10.502386 0 0 1 10.52138,-10.54577 10.587382,10.502386 0 0 1 10.65292,10.415" />
    <path
       style="display:inline;fill:#ffffff;fill-opacity:0.997607;stroke:#000000;stroke-width:0.113739;stroke-linecap:square;stroke-linejoin:round;stroke-dasharray:none;stroke-opacity:1"
       id="path21549-5-3-5-6"
       sodipodi:type="arc"
       sodipodi:cx="104.24884"
       sodipodi:cy="241.23425"
       sodipodi:rx="14.397749"
       sodipodi:ry="14.282163"
       sodipodi:start="0"
       sodipodi:end="6.2748848"
       sodipodi:open="true"
       sodipodi:arc-type="arc"
       d="m 118.64659,241.23425 a 14.397749,14.282163 0 0 1 -14.36787,14.28213 14.397749,14.282163 0 0 1 -14.427505,-14.22285 14.397749,14.282163 0 0 1 14.307995,-14.34116 14.397749,14.282163 0 0 1 14.48688,14.16334" />
    <path
       style="display:inline;fill:#ffffff;fill-opacity:0.997607;stroke:#000000;stroke-width:0.0797411;stroke-linecap:square;stroke-linejoin:round;stroke-dasharray:none;stroke-opacity:1"
       id="path21549-5-3-5-2-4-6"
       sodipodi:type="arc"
       sodipodi:cx="240.98332"
       sodipodi:cy="-82.061874"
       sodipodi:rx="10.094029"
       sodipodi:ry="10.012993"
       sodipodi:start="0"
       sodipodi:end="6.2748848"
       sodipodi:open="true"
       sodipodi:arc-type="arc"
       d="m 251.07735,-82.061874 a 10.094029,10.012993 0 0 1 -10.07308,10.012971 10.094029,10.012993 0 0 1 -10.11489,-9.971415 10.094029,10.012993 0 0 1 10.0311,-10.054355 10.094029,10.012993 0 0 1 10.15652,9.929687" />
    <path
       style="display:inline;fill:#ffffff;fill-opacity:0.997607;stroke:#000000;stroke-width:0.127451;stroke-linecap:square;stroke-linejoin:round;stroke-dasharray:none;stroke-opacity:1"
       id="path21549-5-3-5-2-93"
       sodipodi:type="arc"
       sodipodi:cx="138.20583"
       sodipodi:cy="4.6600523"
       sodipodi:rx="16.1334"
       sodipodi:ry="16.00388"
       sodipodi:start="0"
       sodipodi:end="6.2748848"
       sodipodi:open="true"
       sodipodi:arc-type="arc"
       d="M 154.33923,4.6600523 A 16.1334,16.00388 0 0 1 138.2393,20.663897 16.1334,16.00388 0 0 1 122.07256,4.7264723 16.1334,16.00388 0 0 1 138.10539,-11.343517 16.1334,16.00388 0 0 1 154.33867,4.5272135" />
    <path
       style="display:inline;fill:#ffffff;fill-opacity:0.997607;stroke:#000000;stroke-width:0.107822;stroke-linecap:square;stroke-linejoin:round;stroke-dasharray:none;stroke-opacity:1"
       id="path21549-5-3-5-2-19"
       sodipodi:type="arc"
       sodipodi:cx="118.03197"
       sodipodi:cy="-49.347462"
       sodipodi:rx="13.648664"
       sodipodi:ry="13.539092"
       sodipodi:start="0"
       sodipodi:end="6.2748848"
       sodipodi:open="true"
       sodipodi:arc-type="arc"
       d="m 131.68063,-49.347462 a 13.648664,13.539092 0 0 1 -13.62034,13.539063 13.648664,13.539092 0 0 1 -13.67687,-13.482872 13.648664,13.539092 0 0 1 13.56358,-13.59502 13.648664,13.539092 0 0 1 13.73316,13.426449" />
    <path
       style="display:inline;fill:#ffffff;fill-opacity:0.997607;stroke:#000000;stroke-width:0.142842;stroke-linecap:square;stroke-linejoin:round;stroke-dasharray:none;stroke-opacity:1"
       id="path21549-0"
       sodipodi:type="arc"
       sodipodi:cx="126.64359"
       sodipodi:cy="292.31848"
       sodipodi:rx="18.311415"
       sodipodi:ry="17.711597"
       sodipodi:start="0"
       sodipodi:end="6.2748848"
       sodipodi:open="true"
       sodipodi:arc-type="arc"
       d="m 144.95501,292.31848 a 18.311415,17.711597 0 0 1 -18.27342,17.71156 18.311415,17.711597 0 0 1 -18.34925,-17.63805 18.311415,17.711597 0 0 1 18.19726,-17.78476 18.311415,17.711597 0 0 1 18.42478,17.56424" />
    <path
       style="display:inline;fill:#ffffff;fill-opacity:0.997607;stroke:#000000;stroke-width:0.142842;stroke-linecap:square;stroke-linejoin:round;stroke-dasharray:none;stroke-opacity:1"
       id="path21549-0-7"
       sodipodi:type="arc"
       sodipodi:cx="221.20641"
       sodipodi:cy="194.7755"
       sodipodi:rx="18.311415"
       sodipodi:ry="17.711597"
       sodipodi:start="0"
       sodipodi:end="6.2748848"
       sodipodi:open="true"
       sodipodi:arc-type="arc"
       d="m 239.51782,194.7755 a 18.311415,17.711597 0 0 1 -18.27342,17.71156 18.311415,17.711597 0 0 1 -18.34925,-17.63806 18.311415,17.711597 0 0 1 18.19726,-17.78476 18.311415,17.711597 0 0 1 18.42478,17.56424" />
    <path
       style="display:inline;fill:#ffffff;fill-opacity:0.997607;stroke:#000000;stroke-width:0.142842;stroke-linecap:square;stroke-linejoin:round;stroke-dasharray:none;stroke-opacity:1"
       id="path21549-0-7-3"
       sodipodi:type="arc"
       sodipodi:cx="230.02657"
       sodipodi:cy="135.76111"
       sodipodi:rx="18.311415"
       sodipodi:ry="17.711597"
       sodipodi:start="0"
       sodipodi:end="6.2748848"
       sodipodi:open="true"
       sodipodi:arc-type="arc"
       d="m 248.33798,135.76111 a 18.311415,17.711597 0 0 1 -18.27342,17.71156 18.311415,17.711597 0 0 1 -18.34925,-17.63805 18.311415,17.711597 0 0 1 18.19726,-17.78477 18.311415,17.711597 0 0 1 18.42478,17.56424" />
    <path
       style="display:inline;fill:#ffffff;fill-opacity:0.997607;stroke:#000000;stroke-width:0.140001;stroke-linecap:square;stroke-linejoin:round;stroke-dasharray:none;stroke-opacity:1"
       id="path21549-5-3-2"
       sodipodi:type="arc"
       sodipodi:cx="160.82498"
       sodipodi:cy="230.6515"
       sodipodi:rx="17.722124"
       sodipodi:ry="17.579849"
       sodipodi:start="0"
       sodipodi:end="6.2748848"
       sodipodi:open="true"
       sodipodi:arc-type="arc"
       d="m 178.54711,230.6515 a 17.722124,17.579849 0 0 1 -17.68535,17.57982 17.722124,17.579849 0 0 1 -17.75875,-17.50685 17.722124,17.579849 0 0 1 17.61165,-17.65247 17.722124,17.579849 0 0 1 17.83184,17.43358" />
    <path
       style="display:inline;fill:#ffffff;fill-opacity:0.997607;stroke:#000000;stroke-width:0.113739;stroke-linecap:square;stroke-linejoin:round;stroke-dasharray:none;stroke-opacity:1"
       id="path21549-5-3-5-2-6"
       sodipodi:type="arc"
       sodipodi:cx="170.03813"
       sodipodi:cy="174.82721"
       sodipodi:rx="14.397749"
       sodipodi:ry="14.282163"
       sodipodi:start="0"
       sodipodi:end="6.2748848"
       sodipodi:open="true"
       sodipodi:arc-type="arc"
       d="m 184.43588,174.82721 a 14.397749,14.282163 0 0 1 -14.36787,14.28213 14.397749,14.282163 0 0 1 -14.4275,-14.22286 14.397749,14.282163 0 0 1 14.30799,-14.34116 14.397749,14.282163 0 0 1 14.48688,14.16334" />
    <path
       style="display:inline;fill:#ffffff;fill-opacity:0.997607;stroke:#000000;stroke-width:0.108981;stroke-linecap:square;stroke-linejoin:round;stroke-dasharray:none;stroke-opacity:1"
       id="path21549-5-3-5-2-1-7"
       sodipodi:type="arc"
       sodipodi:cx="209.90471"
       sodipodi:cy="76.330101"
       sodipodi:rx="13.795412"
       sodipodi:ry="13.68466"
       sodipodi:start="0"
       sodipodi:end="6.2748848"
       sodipodi:open="true"
       sodipodi:arc-type="arc"
       d="m 223.70012,76.330101 a 13.795412,13.68466 0 0 1 -13.76678,13.684631 13.795412,13.68466 0 0 1 -13.82392,-13.627836 13.795412,13.68466 0 0 1 13.70941,-13.74119 13.795412,13.68466 0 0 1 13.88082,13.570807" />
    <path
       style="display:inline;fill:#ffffff;fill-opacity:0.997607;stroke:#000000;stroke-width:0.133522;stroke-linecap:square;stroke-linejoin:round;stroke-dasharray:none;stroke-opacity:1"
       id="path21549-5-3-5-2-2"
       sodipodi:type="arc"
       sodipodi:cx="223.99759"
       sodipodi:cy="18.807358"
       sodipodi:rx="16.901922"
       sodipodi:ry="16.766233"
       sodipodi:start="0"
       sodipodi:end="6.2748848"
       sodipodi:open="true"
       sodipodi:arc-type="arc"
       d="M 240.89951,18.807358 A 16.901922,16.766233 0 0 1 224.03266,35.573555 16.901922,16.766233 0 0 1 207.09581,18.876942 16.901922,16.766233 0 0 1 223.89237,2.0414492 16.901922,16.766233 0 0 1 240.89893,18.668191" />
    <path
       style="display:inline;fill:#ffffff;fill-opacity:0.997607;stroke:#000000;stroke-width:0.129685;stroke-linecap:square;stroke-linejoin:round;stroke-dasharray:none;stroke-opacity:1"
       id="path21549-5-3-5-2-4"
       sodipodi:type="arc"
       sodipodi:cx="207.33516"
       sodipodi:cy="-43.349869"
       sodipodi:rx="16.416216"
       sodipodi:ry="16.284426"
       sodipodi:start="0"
       sodipodi:end="6.2748848"
       sodipodi:open="true"
       sodipodi:arc-type="arc"
       d="m 223.75138,-43.349869 a 16.416216,16.284426 0 0 1 -16.38215,16.284391 16.416216,16.284426 0 0 1 -16.45015,-16.216806 16.416216,16.284426 0 0 1 16.31388,-16.351695 16.416216,16.284426 0 0 1 16.51785,16.148943" />
  </g>
</svg>
