<?xml version="1.0" encoding="UTF-8" standalone="no"?>
<svg
   version="1.1"
   id="Layer_1"
   x="0px"
   y="0px"
   width="680"
   viewBox="0 0 680 100"
   enable-background="new 0 0 757 156"
   xml:space="preserve"
   sodipodi:docname="Dandelion-letters.svg"
   inkscape:version="1.2.2 (b0a8486541, 2022-12-01)"
   height="100"
   xmlns:inkscape="http://www.inkscape.org/namespaces/inkscape"
   xmlns:sodipodi="http://sodipodi.sourceforge.net/DTD/sodipodi-0.dtd"
   xmlns="http://www.w3.org/2000/svg"
   xmlns:svg="http://www.w3.org/2000/svg"><defs
   id="defs5683" /><sodipodi:namedview
   id="namedview5681"
   pagecolor="#ffffff"
   bordercolor="#000000"
   borderopacity="0.25"
   inkscape:showpageshadow="2"
   inkscape:pageopacity="0.0"
   inkscape:pagecheckerboard="0"
   inkscape:deskcolor="#d1d1d1"
   showgrid="false"
   inkscape:zoom="0.61182951"
   inkscape:cx="132.38982"
   inkscape:cy="427.40665"
   inkscape:window-width="3774"
   inkscape:window-height="2091"
   inkscape:window-x="0"
   inkscape:window-y="0"
   inkscape:window-maximized="1"
   inkscape:current-layer="layer1" />



<g
   inkscape:groupmode="layer"
   id="layer1"
   inkscape:label="Layer 1"
   style="display:inline"
   transform="translate(-60.964927,-35.194435)" /><path
   fill="#F6F6F6"
   opacity="1"
   stroke="none"
   d="m 222.14136,14 c 0,0 8.82946,0.288679 12.24596,0.288679 v 69.792766 l -10.51634,0.1433 -46.40169,-65.529057 c -0.83838,-1.183974 -1.57663,-2.438983 -2.8401,-4.406375 l 12.68588,-0.277406 34.8166,47.445984 z"
   id="path5650"
   style="fill:#000000;fill-opacity:1"
   sodipodi:nodetypes="ccccscccc" />
<path
   fill="#FAFAFA"
   opacity="1"
   stroke="none"
   d="m 641.13915,62.506532 0.0617,-48.416427 11.62571,0.0042 0.25638,70.48251 -10.1481,-0.33812 -49.74663,-69.928605 13.43795,-0.255438 z"
   id="path5652"
   style="fill:#000000;fill-opacity:1"
   sodipodi:nodetypes="cccccccc" />
<path
   fill="#F8F8F8"
   opacity="1"
   stroke="none"
   d="m 290.32922,79.610925 c -11.61411,6.32715 -23.83329,4.70756 -36.13367,4.7634 0,-3.78367 0,-7.212347 0,-11.332304 5.58893,0 11.19513,0.219979 16.77792,-0.04804 10.09781,-0.484764 17.95114,-4.692459 21.87622,-14.51825 3.64496,-9.124664 1.44886,-20.00626 -5.18109,-26.342109 -4.13696,-3.953469 -9.10498,-6.108681 -14.82126,-6.227955 -6.12124,-0.127724 -12.24722,-0.02881 -18.62164,-0.02881 0,-4.030781 0,-7.475212 0,-11.48481 12.9531,-0.47781 26.08838,-1.780265 37.88892,5.858006 21.65002,14.013626 20.83142,45.394966 -1.7854,59.360872 z"
   id="path5654"
   style="fill:#000000;fill-opacity:1" />
<path
   fill="#F9F9F9"
   opacity="1"
   stroke="none"
   d="m 69.256263,26.651595 c 8.89425,11.689136 10.97457,24.151756 5.09553,37.304863 C 68.580743,76.867979 57.84924,83.158225 44.029637,84.108785 37.432209,84.562575 30.777729,84.456495 24,84.456495 V 73.04505 c 5.532147,0 10.970455,0.118218 16.402111,-0.02157 C 58.657376,72.553679 69.528533,55.397917 62.025094,38.824927 58.31683,30.634413 51.609532,26.448306 42.787373,25.955943 36.675511,25.61484 30.529232,25.890356 24.129185,25.890356 V 14.36162 c 16.30677,-0.74596 32.488205,-1.588085 45.127078,12.289975 z"
   id="path5656"
   style="fill:#000000;fill-opacity:1"
   sodipodi:nodetypes="cssccsssccc" />
<path
   fill="#F7F7F7"
   opacity="1"
   stroke="none"
   d="m 405.90664,32.035963 c 0,-5.988136 0,-11.476734 0,-17.355827 4.07226,0 7.95437,0 12.26785,0 0,19.200627 0,38.453392 0,58.188255 12.29267,0 24.18537,0 36.35593,0 0,4.037552 0,7.599514 0,11.340064 -16.17893,0 -32.25968,0 -48.62378,0 0,-17.406081 0,-34.539511 0,-52.172492 z"
   id="path5658"
   style="fill:#000000;fill-opacity:1" />
<path
   fill="#F9F9F9"
   opacity="1"
   stroke="none"
   d="m 540.85378,25.359255 c -13.80701,5.052854 -17.95199,15.772896 -17.04886,26.654064 0.88929,10.71402 6.81263,17.670525 17.12507,21.158989 l 0.0361,10.824537 C 527.37295,83.321735 513.63616,71.0866 511.13537,54.486769 508.25359,35.358263 521.58073,17.527385 540.869,14.208064 Z"
   id="path5660"
   style="fill:#000000;fill-opacity:1"
   sodipodi:nodetypes="csccscc" />
<path
   fill="#F8F8F8"
   opacity="1"
   stroke="none"
   d="m 580.82079,48.112738 c 0.98566,21.115578 -15.92132,35.548067 -29.64233,35.884107 l 0.10182,-10.754694 c 14.8016,-5.610616 17.3994,-15.854373 16.79417,-25.790958 -0.56579,-9.289966 -4.95507,-16.015281 -13.21447,-20.223915 -1.17212,-0.597259 -2.46265,-0.962131 -3.69178,-1.432064 V 14.776499 c 16.5702,1.536808 29.06037,15.478657 29.65259,33.336239 z"
   id="path5662"
   style="fill:#000000;fill-opacity:1"
   sodipodi:nodetypes="cccssccc" />
<path
   fill="#F9F9F9"
   opacity="1"
   stroke="none"
   d="m 134.68725,14.173316 26.08903,70.260219 c -4.31939,0 -9.241,0.29378 -13.27653,0.11298 L 121.2882,14.011907 Z"
   id="path5664"
   style="fill:#000000;fill-opacity:1"
   sodipodi:nodetypes="ccccc" />
<path
   fill="#F6F6F6"
   opacity="1"
   stroke="none"
   d="m 489.65618,57.034567 c 0,9.318123 0,18.136246 0,27.352388 -4.26965,0 -8.29834,0 -12.56274,0 0,-23.224183 0,-46.330842 0,-69.818353 3.97815,0 8.00525,0 12.56274,0 0,14.07383 0,28.019897 0,42.465965 z"
   id="path5666"
   style="fill:#000000;fill-opacity:1" />
<path
   fill="#F8F8F8"
   opacity="1"
   stroke="none"
   d="m 114.96773,30.257959 6.71882,16.232517 -15.07871,38.056039 c 0,0 -10.078,-0.0684 -13.41061,-0.0684 7.16583,-17.605248 14.59124,-36.620521 21.7705,-54.220156 z"
   id="path5668"
   style="fill:#000000;fill-opacity:1"
   sodipodi:nodetypes="ccccc" />
<path
   fill="#F3F3F3"
   opacity="1"
   stroke="none"
   d="m 327.49701,25.575962 -0.10506,-11.274131 h 52.26749 l -0.0492,11.252778 z"
   id="path5670"
   style="fill:#000000;fill-opacity:1"
   sodipodi:nodetypes="ccccc" />
<path
   fill="#FBFBFB"
   opacity="1"
   stroke="none"
   d="m 327.38647,73.149295 52.0292,0.0753 v 11.24263 c -16.48746,0.0841 -36.72298,-0.18701 -52.0358,-0.0102 z"
   id="path5672"
   style="fill:#000000;fill-opacity:1"
   sodipodi:nodetypes="ccccc" />
<path
   fill="#F4F4F4"
   opacity="1"
   stroke="none"
   d="m 604.75799,46.670604 0.0276,37.568081 -12.34495,-0.24184 -0.21914,-54.430017 z"
   id="path5674"
   style="fill:#000000;fill-opacity:1"
   sodipodi:nodetypes="ccccc" />
<path
   fill="#F1F1F1"
   opacity="1"
   stroke="none"
   d="m 327.59471,43.258062 c 14.58923,-0.171211 31.88682,-0.03954 46.83296,-0.03954 v 11.327703 l -46.82169,0.10976 z"
   id="path5676"
   style="fill:#000000;fill-opacity:1"
   sodipodi:nodetypes="ccccc" />
<path
   fill="#FEFEFE"
   opacity="1"
   stroke="none"
   d="m 173.7589,49.035681 c 1.7e-4,-6.387634 0.13804,-12.188419 0.13804,-19.461822 l 12.27931,17.787429 c 0.0616,11.915947 -0.0871,24.725152 -0.0871,36.863457 h -12.33038 c 0,-11.531242 0,-23.110321 1.6e-4,-35.189064 z"
   id="path5678"
   style="fill:#000000;fill-opacity:1"
   sodipodi:nodetypes="sccccss" />
</svg>
